<mxfile host="65bd71144e">
    <diagram id="0u_qtOS4Y0FndUmrjiN6" name="Page-1">
        <mxGraphModel dx="970" dy="868" grid="1" gridSize="10" guides="1" tooltips="1" connect="1" arrows="1" fold="1" page="1" pageScale="1" pageWidth="850" pageHeight="1100" math="0" shadow="0">
            <root>
                <mxCell id="0"/>
                <mxCell id="1" parent="0"/>
                <mxCell id="2" value="&lt;font style=&quot;font-size: 17px;&quot;&gt;10&lt;/font&gt;" style="rounded=0;whiteSpace=wrap;html=1;" vertex="1" parent="1">
                    <mxGeometry x="370" y="60" width="190" height="40" as="geometry"/>
                </mxCell>
                <mxCell id="3" value="" style="rounded=0;whiteSpace=wrap;html=1;" vertex="1" parent="1">
                    <mxGeometry x="370" y="100" width="190" height="40" as="geometry"/>
                </mxCell>
                <mxCell id="4" value="" style="rounded=0;whiteSpace=wrap;html=1;" vertex="1" parent="1">
                    <mxGeometry x="370" y="140" width="190" height="40" as="geometry"/>
                </mxCell>
                <mxCell id="5" value="" style="rounded=0;whiteSpace=wrap;html=1;" vertex="1" parent="1">
                    <mxGeometry x="370" y="180" width="190" height="40" as="geometry"/>
                </mxCell>
                <mxCell id="6" value="&lt;font style=&quot;font-size: 18px;&quot;&gt;1000&lt;/font&gt;" style="rounded=0;whiteSpace=wrap;html=1;" vertex="1" parent="1">
                    <mxGeometry x="370" y="220" width="190" height="40" as="geometry"/>
                </mxCell>
                <mxCell id="7" value="Memory" style="text;html=1;align=center;verticalAlign=middle;resizable=0;points=[];autosize=1;strokeColor=none;fillColor=none;fontSize=18;" vertex="1" parent="1">
                    <mxGeometry x="420" y="270" width="90" height="40" as="geometry"/>
                </mxCell>
                <mxCell id="8" value="num1" style="text;html=1;align=center;verticalAlign=middle;resizable=0;points=[];autosize=1;strokeColor=none;fillColor=none;fontSize=18;" vertex="1" parent="1">
                    <mxGeometry x="270" y="60" width="70" height="40" as="geometry"/>
                </mxCell>
                <mxCell id="9" value="int num1 = 10;&lt;br&gt;int num2 = 20;" style="text;html=1;align=center;verticalAlign=middle;resizable=0;points=[];autosize=1;strokeColor=none;fillColor=none;fontSize=18;" vertex="1" parent="1">
                    <mxGeometry x="55" y="50" width="140" height="60" as="geometry"/>
                </mxCell>
                <mxCell id="10" value="1000" style="text;html=1;align=center;verticalAlign=middle;resizable=0;points=[];autosize=1;strokeColor=none;fillColor=none;fontSize=18;" vertex="1" parent="1">
                    <mxGeometry x="570" y="60" width="60" height="40" as="geometry"/>
                </mxCell>
                <mxCell id="11" value="Memory Address" style="text;html=1;align=center;verticalAlign=middle;resizable=0;points=[];autosize=1;strokeColor=none;fillColor=none;fontSize=18;" vertex="1" parent="1">
                    <mxGeometry x="530" y="10" width="160" height="40" as="geometry"/>
                </mxCell>
                <mxCell id="12" value="int *ptr;" style="text;html=1;align=center;verticalAlign=middle;resizable=0;points=[];autosize=1;strokeColor=none;fillColor=none;fontSize=18;" vertex="1" parent="1">
                    <mxGeometry x="85" y="130" width="80" height="40" as="geometry"/>
                </mxCell>
                <mxCell id="13" value="ptr" style="text;html=1;align=center;verticalAlign=middle;resizable=0;points=[];autosize=1;strokeColor=none;fillColor=none;fontSize=18;" vertex="1" parent="1">
                    <mxGeometry x="285" y="220" width="40" height="40" as="geometry"/>
                </mxCell>
                <mxCell id="14" value="1004" style="text;html=1;align=center;verticalAlign=middle;resizable=0;points=[];autosize=1;strokeColor=none;fillColor=none;fontSize=18;" vertex="1" parent="1">
                    <mxGeometry x="570" y="100" width="60" height="40" as="geometry"/>
                </mxCell>
                <mxCell id="15" value="1008" style="text;html=1;align=center;verticalAlign=middle;resizable=0;points=[];autosize=1;strokeColor=none;fillColor=none;fontSize=18;" vertex="1" parent="1">
                    <mxGeometry x="570" y="150" width="60" height="40" as="geometry"/>
                </mxCell>
                <mxCell id="16" value="1012" style="text;html=1;align=center;verticalAlign=middle;resizable=0;points=[];autosize=1;strokeColor=none;fillColor=none;fontSize=18;" vertex="1" parent="1">
                    <mxGeometry x="570" y="190" width="60" height="40" as="geometry"/>
                </mxCell>
                <mxCell id="17" value="1016" style="text;html=1;align=center;verticalAlign=middle;resizable=0;points=[];autosize=1;strokeColor=none;fillColor=none;fontSize=18;" vertex="1" parent="1">
                    <mxGeometry x="570" y="220" width="60" height="40" as="geometry"/>
                </mxCell>
                <mxCell id="18" value="ptr = &amp;amp;num;" style="text;html=1;align=center;verticalAlign=middle;resizable=0;points=[];autosize=1;strokeColor=none;fillColor=none;fontSize=18;" vertex="1" parent="1">
                    <mxGeometry x="65" y="210" width="120" height="40" as="geometry"/>
                </mxCell>
                <mxCell id="19" value="cout &amp;lt;&amp;lt; *ptr &amp;lt;&amp;lt; endl;" style="text;html=1;align=center;verticalAlign=middle;resizable=0;points=[];autosize=1;strokeColor=none;fillColor=none;fontSize=18;" vertex="1" parent="1">
                    <mxGeometry x="30" y="300" width="190" height="40" as="geometry"/>
                </mxCell>
                <mxCell id="20" value="" style="endArrow=classic;html=1;fontSize=18;exitX=0.632;exitY=0.25;exitDx=0;exitDy=0;exitPerimeter=0;" edge="1" parent="1" source="6" target="10">
                    <mxGeometry width="50" height="50" relative="1" as="geometry">
                        <mxPoint x="400" y="440" as="sourcePoint"/>
                        <mxPoint x="450" y="390" as="targetPoint"/>
                    </mxGeometry>
                </mxCell>
                <mxCell id="21" value="" style="endArrow=classic;html=1;fontSize=18;exitX=-0.067;exitY=0.6;exitDx=0;exitDy=0;exitPerimeter=0;entryX=0.632;entryY=0.594;entryDx=0;entryDy=0;entryPerimeter=0;" edge="1" parent="1" source="10" target="2">
                    <mxGeometry width="50" height="50" relative="1" as="geometry">
                        <mxPoint x="660" y="120" as="sourcePoint"/>
                        <mxPoint x="710" y="70" as="targetPoint"/>
                    </mxGeometry>
                </mxCell>
                <mxCell id="22" value="num2" style="text;html=1;align=center;verticalAlign=middle;resizable=0;points=[];autosize=1;strokeColor=none;fillColor=none;fontSize=18;" vertex="1" parent="1">
                    <mxGeometry x="270" y="100" width="70" height="40" as="geometry"/>
                </mxCell>
                <mxCell id="23" value="&amp;amp; : reference variable&lt;br&gt;&amp;amp;: memory address&amp;nbsp;" style="text;html=1;align=center;verticalAlign=middle;resizable=0;points=[];autosize=1;strokeColor=none;fillColor=none;fontSize=18;" vertex="1" parent="1">
                    <mxGeometry x="210" y="400" width="190" height="60" as="geometry"/>
                </mxCell>
                <mxCell id="24" value="=&amp;nbsp;" style="text;html=1;align=center;verticalAlign=middle;resizable=0;points=[];autosize=1;strokeColor=none;fillColor=none;fontSize=18;" vertex="1" parent="1">
                    <mxGeometry x="520" y="400" width="40" height="40" as="geometry"/>
                </mxCell>
                <mxCell id="25" value="" style="endArrow=classic;html=1;fontSize=18;" edge="1" parent="1">
                    <mxGeometry width="50" height="50" relative="1" as="geometry">
                        <mxPoint x="480" y="490" as="sourcePoint"/>
                        <mxPoint x="480" y="440" as="targetPoint"/>
                    </mxGeometry>
                </mxCell>
                <mxCell id="26" value="&amp;amp;" style="text;html=1;align=center;verticalAlign=middle;resizable=0;points=[];autosize=1;strokeColor=none;fillColor=none;fontSize=18;" vertex="1" parent="1">
                    <mxGeometry x="460" y="400" width="40" height="40" as="geometry"/>
                </mxCell>
                <mxCell id="27" value="LHS" style="text;html=1;align=center;verticalAlign=middle;resizable=0;points=[];autosize=1;strokeColor=none;fillColor=none;fontSize=18;" vertex="1" parent="1">
                    <mxGeometry x="450" y="360" width="60" height="40" as="geometry"/>
                </mxCell>
                <mxCell id="28" value="Reference var&lt;br&gt;at the declartion statement" style="text;html=1;align=center;verticalAlign=middle;resizable=0;points=[];autosize=1;strokeColor=none;fillColor=none;fontSize=18;" vertex="1" parent="1">
                    <mxGeometry x="305" y="480" width="240" height="60" as="geometry"/>
                </mxCell>
                <mxCell id="29" value="" style="endArrow=classic;html=1;fontSize=18;" edge="1" parent="1">
                    <mxGeometry width="50" height="50" relative="1" as="geometry">
                        <mxPoint x="600" y="490" as="sourcePoint"/>
                        <mxPoint x="600" y="440" as="targetPoint"/>
                    </mxGeometry>
                </mxCell>
                <mxCell id="30" value="&amp;amp;" style="text;html=1;align=center;verticalAlign=middle;resizable=0;points=[];autosize=1;strokeColor=none;fillColor=none;fontSize=18;" vertex="1" parent="1">
                    <mxGeometry x="580" y="400" width="40" height="40" as="geometry"/>
                </mxCell>
                <mxCell id="31" value="RHS" style="text;html=1;align=center;verticalAlign=middle;resizable=0;points=[];autosize=1;strokeColor=none;fillColor=none;fontSize=18;" vertex="1" parent="1">
                    <mxGeometry x="570" y="360" width="60" height="40" as="geometry"/>
                </mxCell>
                <mxCell id="32" value="memory addr" style="text;html=1;align=center;verticalAlign=middle;resizable=0;points=[];autosize=1;strokeColor=none;fillColor=none;fontSize=18;" vertex="1" parent="1">
                    <mxGeometry x="535" y="490" width="130" height="40" as="geometry"/>
                </mxCell>
                <mxCell id="33" value="&amp;amp;ref = num1;" style="text;html=1;align=center;verticalAlign=middle;resizable=0;points=[];autosize=1;strokeColor=none;fillColor=none;fontSize=18;" vertex="1" parent="1">
                    <mxGeometry x="340" y="550" width="130" height="40" as="geometry"/>
                </mxCell>
                <mxCell id="34" value="" style="endArrow=none;html=1;fontSize=18;" edge="1" parent="1">
                    <mxGeometry width="50" height="50" relative="1" as="geometry">
                        <mxPoint x="375" y="600" as="sourcePoint"/>
                        <mxPoint x="425" y="550" as="targetPoint"/>
                    </mxGeometry>
                </mxCell>
                <mxCell id="35" value="" style="endArrow=none;html=1;fontSize=18;" edge="1" parent="1" source="33">
                    <mxGeometry width="50" height="50" relative="1" as="geometry">
                        <mxPoint x="385" y="610" as="sourcePoint"/>
                        <mxPoint x="430" y="600" as="targetPoint"/>
                        <Array as="points">
                            <mxPoint x="390" y="560"/>
                        </Array>
                    </mxGeometry>
                </mxCell>
                <mxCell id="36" value="int *ptr = &amp;amp;num;" style="text;html=1;align=center;verticalAlign=middle;resizable=0;points=[];autosize=1;strokeColor=none;fillColor=none;fontSize=18;" vertex="1" parent="1">
                    <mxGeometry x="530" y="320" width="150" height="40" as="geometry"/>
                </mxCell>
                <mxCell id="37" value="ptr = &amp;amp;num;" style="text;html=1;align=center;verticalAlign=middle;resizable=0;points=[];autosize=1;strokeColor=none;fillColor=none;fontSize=18;" vertex="1" parent="1">
                    <mxGeometry x="555" y="550" width="120" height="40" as="geometry"/>
                </mxCell>
                <mxCell id="38" value="*ptr" style="text;html=1;align=center;verticalAlign=middle;resizable=0;points=[];autosize=1;strokeColor=none;fillColor=none;fontSize=18;" vertex="1" parent="1">
                    <mxGeometry x="165" y="660" width="50" height="40" as="geometry"/>
                </mxCell>
                <mxCell id="39" value="ptr = &amp;amp;num1" style="text;html=1;align=center;verticalAlign=middle;resizable=0;points=[];autosize=1;strokeColor=none;fillColor=none;fontSize=18;" vertex="1" parent="1">
                    <mxGeometry x="130" y="760" width="120" height="40" as="geometry"/>
                </mxCell>
                <mxCell id="40" value="int *ptr1, ptr2;&lt;br&gt;ptr = &amp;amp;num1;" style="text;html=1;align=center;verticalAlign=middle;resizable=0;points=[];autosize=1;strokeColor=none;fillColor=none;fontSize=18;" vertex="1" parent="1">
                    <mxGeometry x="310" y="650" width="130" height="60" as="geometry"/>
                </mxCell>
                <mxCell id="41" value="ptr1 = ptr2" style="text;html=1;align=center;verticalAlign=middle;resizable=0;points=[];autosize=1;strokeColor=none;fillColor=none;fontSize=18;" vertex="1" parent="1">
                    <mxGeometry x="315" y="760" width="110" height="40" as="geometry"/>
                </mxCell>
                <mxCell id="42" value="direct value of pointer variable" style="text;html=1;align=center;verticalAlign=middle;resizable=0;points=[];autosize=1;strokeColor=none;fillColor=none;fontSize=18;" vertex="1" parent="1">
                    <mxGeometry x="60" y="870" width="260" height="40" as="geometry"/>
                </mxCell>
                <mxCell id="43" value="indirect value of pointer variable" style="text;html=1;align=center;verticalAlign=middle;resizable=0;points=[];autosize=1;strokeColor=none;fillColor=none;fontSize=18;" vertex="1" parent="1">
                    <mxGeometry x="55" y="920" width="280" height="40" as="geometry"/>
                </mxCell>
                <mxCell id="44" value="(dereferencing)" style="text;html=1;align=center;verticalAlign=middle;resizable=0;points=[];autosize=1;strokeColor=none;fillColor=none;fontSize=18;" vertex="1" parent="1">
                    <mxGeometry x="360" y="920" width="150" height="40" as="geometry"/>
                </mxCell>
            </root>
        </mxGraphModel>
    </diagram>
    <diagram id="qXpPR9Q1qd2cVy62moRr" name="Page-2">
        <mxGraphModel dx="970" dy="868" grid="1" gridSize="10" guides="1" tooltips="1" connect="1" arrows="1" fold="1" page="1" pageScale="1" pageWidth="850" pageHeight="1100" math="0" shadow="0">
            <root>
                <mxCell id="0"/>
                <mxCell id="1" parent="0"/>
                <mxCell id="MxXkROkM38FzNCIEcUMy-1" value="" style="rounded=0;whiteSpace=wrap;html=1;fontSize=18;" vertex="1" parent="1">
                    <mxGeometry x="80" y="30" width="230" height="170" as="geometry"/>
                </mxCell>
                <mxCell id="MxXkROkM38FzNCIEcUMy-2" value="" style="rounded=0;whiteSpace=wrap;html=1;fontSize=18;" vertex="1" parent="1">
                    <mxGeometry x="500" y="30" width="230" height="170" as="geometry"/>
                </mxCell>
                <mxCell id="MxXkROkM38FzNCIEcUMy-3" value="myfunction(&amp;amp;num);" style="text;html=1;align=center;verticalAlign=middle;resizable=0;points=[];autosize=1;strokeColor=none;fillColor=none;fontSize=18;" vertex="1" parent="1">
                    <mxGeometry x="110" y="80" width="170" height="40" as="geometry"/>
                </mxCell>
                <mxCell id="MxXkROkM38FzNCIEcUMy-4" value="myfunction(&lt;font color=&quot;#ff3333&quot;&gt;int *ptr&lt;/font&gt; )" style="text;html=1;align=center;verticalAlign=middle;resizable=0;points=[];autosize=1;strokeColor=none;fillColor=none;fontSize=18;" vertex="1" parent="1">
                    <mxGeometry x="485" width="180" height="40" as="geometry"/>
                </mxCell>
                <mxCell id="MxXkROkM38FzNCIEcUMy-5" value="int num;" style="text;html=1;align=center;verticalAlign=middle;resizable=0;points=[];autosize=1;strokeColor=none;fillColor=none;fontSize=18;" vertex="1" parent="1">
                    <mxGeometry x="150" y="40" width="90" height="40" as="geometry"/>
                </mxCell>
                <mxCell id="MxXkROkM38FzNCIEcUMy-6" value="" style="rounded=0;whiteSpace=wrap;html=1;fontSize=18;" vertex="1" parent="1">
                    <mxGeometry x="90" y="280" width="230" height="170" as="geometry"/>
                </mxCell>
                <mxCell id="MxXkROkM38FzNCIEcUMy-7" value="" style="rounded=0;whiteSpace=wrap;html=1;fontSize=18;" vertex="1" parent="1">
                    <mxGeometry x="510" y="280" width="230" height="170" as="geometry"/>
                </mxCell>
                <mxCell id="MxXkROkM38FzNCIEcUMy-8" value="myfunction(num);" style="text;html=1;align=center;verticalAlign=middle;resizable=0;points=[];autosize=1;strokeColor=none;fillColor=none;fontSize=18;" vertex="1" parent="1">
                    <mxGeometry x="125" y="330" width="160" height="40" as="geometry"/>
                </mxCell>
                <mxCell id="MxXkROkM38FzNCIEcUMy-9" value="int num;" style="text;html=1;align=center;verticalAlign=middle;resizable=0;points=[];autosize=1;strokeColor=none;fillColor=none;fontSize=18;" vertex="1" parent="1">
                    <mxGeometry x="120" y="310" width="90" height="40" as="geometry"/>
                </mxCell>
                <mxCell id="MxXkROkM38FzNCIEcUMy-10" value="myfunction(&lt;font color=&quot;#ff3333&quot;&gt;int &amp;amp;ref&lt;/font&gt;&amp;nbsp;)" style="text;html=1;align=center;verticalAlign=middle;resizable=0;points=[];autosize=1;strokeColor=none;fillColor=none;fontSize=18;" vertex="1" parent="1">
                    <mxGeometry x="500" y="240" width="180" height="40" as="geometry"/>
                </mxCell>
                <mxCell id="MxXkROkM38FzNCIEcUMy-11" value="" style="endArrow=classic;html=1;fontSize=18;fontColor=#FF3333;exitX=0.906;exitY=0.5;exitDx=0;exitDy=0;exitPerimeter=0;entryX=0.722;entryY=0.75;entryDx=0;entryDy=0;entryPerimeter=0;" edge="1" parent="1" source="MxXkROkM38FzNCIEcUMy-8" target="MxXkROkM38FzNCIEcUMy-10">
                    <mxGeometry width="50" height="50" relative="1" as="geometry">
                        <mxPoint x="400" y="400" as="sourcePoint"/>
                        <mxPoint x="450" y="350" as="targetPoint"/>
                    </mxGeometry>
                </mxCell>
                <mxCell id="MxXkROkM38FzNCIEcUMy-12" value="void myfunction(int &amp;amp;);" style="text;html=1;align=center;verticalAlign=middle;resizable=0;points=[];autosize=1;strokeColor=none;fillColor=none;fontSize=18;" vertex="1" parent="1">
                    <mxGeometry x="105" y="280" width="200" height="40" as="geometry"/>
                </mxCell>
                <mxCell id="MxXkROkM38FzNCIEcUMy-13" value="void myfunction(int *);" style="text;html=1;align=center;verticalAlign=middle;resizable=0;points=[];autosize=1;strokeColor=none;fillColor=none;fontSize=18;" vertex="1" parent="1">
                    <mxGeometry x="95" y="20" width="200" height="40" as="geometry"/>
                </mxCell>
            </root>
        </mxGraphModel>
    </diagram>
</mxfile>